solid 
 facet normal -2.131628e-16  8.750526e-16  1.000000e+00
   outer loop
     vertex -7.300000e+01 -2.030000e+01 -2.030000e+01
     vertex -2.300000e+01 -4.100000e-14 -2.030000e+01
     vertex -7.300000e+01 -1.600000e-14 -2.030000e+01
   endloop
 endfacet
 facet normal -3.552714e-16  1.225074e-15  1.000000e+00
   outer loop
     vertex -7.300000e+01 -2.030000e+01 -2.030000e+01
     vertex -2.300000e+01 -2.030000e+01 -2.030000e+01
     vertex -2.300000e+01 -4.100000e-14 -2.030000e+01
   endloop
 endfacet
 facet normal -2.131628e-16  1.225074e-15  1.000000e+00
   outer loop
     vertex -7.300000e+01 -1.600000e-14 -2.030000e+01
     vertex -2.300000e+01 -4.100000e-14 -2.030000e+01
     vertex -2.300000e+01  2.030000e+01 -2.030000e+01
   endloop
 endfacet
 facet normal -7.105427e-17  8.750526e-16  1.000000e+00
   outer loop
     vertex -7.300000e+01  2.030000e+01 -2.030000e+01
     vertex -7.300000e+01 -1.600000e-14 -2.030000e+01
     vertex -2.300000e+01  2.030000e+01 -2.030000e+01
   endloop
 endfacet
 facet normal  5.684342e-16  1.000000e+00 -6.898473e-16
   outer loop
     vertex -7.300000e+01 -2.030000e+01 -2.030000e+01
     vertex -2.300000e+01 -2.030000e+01 -1.000000e+01
     vertex -2.300000e+01 -2.030000e+01 -2.030000e+01
   endloop
 endfacet
 facet normal  5.684342e-16  1.000000e+00 -6.898473e-16
   outer loop
     vertex -7.300000e+01 -2.030000e+01 -1.000000e+01
     vertex -2.300000e+01 -2.030000e+01 -1.000000e+01
     vertex -7.300000e+01 -2.030000e+01 -2.030000e+01
   endloop
 endfacet
 facet normal -1.000000e+00  0.000000e+00  0.000000e+00
   outer loop
     vertex -7.300000e+01 -3.652338e+00 -1.300000e+02
     vertex -7.300000e+01 -1.500000e+00 -1.279102e+02
     vertex -7.300000e+01 -1.090000e-13 -1.400000e+02
   endloop
 endfacet
 facet normal -1.000000e+00  1.776357e-16 -1.519301e-15
   outer loop
     vertex -7.300000e+01 -7.447095e+01 -1.300000e+02
     vertex -7.300000e+01 -1.090000e-13 -1.400000e+02
     vertex -7.300000e+01 -8.000000e+01 -1.400000e+02
   endloop
 endfacet
 facet normal -1.000000e+00  4.013311e-16  1.465797e-16
   outer loop
     vertex -7.300000e+01 -7.447095e+01 -1.300000e+02
     vertex -7.300000e+01 -3.652338e+00 -1.300000e+02
     vertex -7.300000e+01 -1.090000e-13 -1.400000e+02
   endloop
 endfacet
 facet normal -1.000000e+00 -4.641381e-15 -5.758612e-16
   outer loop
     vertex -7.300000e+01 -1.500000e+00 -5.387745e+01
     vertex -7.300000e+01 -1.090000e-13 -1.400000e+02
     vertex -7.300000e+01 -1.500000e+00 -1.279102e+02
   endloop
 endfacet
 facet normal -1.000000e+00 -7.304993e-30 -1.421085e-15
   outer loop
     vertex -7.300000e+01 -8.000000e+01 -1.300000e+02
     vertex -7.300000e+01 -7.447095e+01 -1.300000e+02
     vertex -7.300000e+01 -8.000000e+01 -1.400000e+02
   endloop
 endfacet
 facet normal -1.000000e+00  0.000000e+00  0.000000e+00
   outer loop
     vertex -7.300000e+01 -3.652338e+00 -5.164306e+01
     vertex -7.300000e+01 -1.500000e+00 -4.955321e+01
     vertex -7.300000e+01 -1.500000e+00 -5.387745e+01
   endloop
 endfacet
 facet normal -1.000000e+00  9.473903e-16  0.000000e+00
   outer loop
     vertex -7.300000e+01 -9.500000e+01 -1.300000e+02
     vertex -7.300000e+01 -8.000000e+01 -1.400000e+02
     vertex -7.300000e+01 -9.500000e+01 -1.400000e+02
   endloop
 endfacet
 facet normal -1.000000e+00  0.000000e+00 -1.421085e-15
   outer loop
     vertex -7.300000e+01 -9.500000e+01 -1.300000e+02
     vertex -7.300000e+01 -8.000000e+01 -1.300000e+02
     vertex -7.300000e+01 -8.000000e+01 -1.400000e+02
   endloop
 endfacet
 facet normal -1.000000e+00  4.437553e-16 -4.570254e-16
   outer loop
     vertex -7.300000e+01 -4.812111e+01 -7.989488e+01
     vertex -7.300000e+01 -1.500000e+00 -1.279102e+02
     vertex -7.300000e+01 -3.652338e+00 -1.300000e+02
   endloop
 endfacet
 facet normal -1.000000e+00  0.000000e+00  0.000000e+00
   outer loop
     vertex -7.300000e+01 -4.812111e+01 -7.989488e+01
     vertex -7.300000e+01 -3.652338e+00 -5.164306e+01
     vertex -7.300000e+01 -1.500000e+00 -5.387745e+01
   endloop
 endfacet
 facet normal -1.000000e+00 -1.488463e-30 -2.895600e-16
   outer loop
     vertex -7.300000e+01 -5.130475e+01 -8.092259e+01
     vertex -7.300000e+01 -7.447095e+01 -1.300000e+02
     vertex -7.300000e+01 -8.000000e+01 -1.300000e+02
   endloop
 endfacet
 facet normal -1.000000e+00  2.134997e-16 -6.613794e-16
   outer loop
     vertex -7.300000e+01 -5.130475e+01 -8.092259e+01
     vertex -7.300000e+01 -4.812111e+01 -7.989488e+01
     vertex -7.300000e+01 -3.652338e+00 -1.300000e+02
   endloop
 endfacet
 facet normal -1.000000e+00  0.000000e+00  0.000000e+00
   outer loop
     vertex -7.300000e+01 -4.958306e+01 -7.727520e+01
     vertex -7.300000e+01 -3.652338e+00 -5.164306e+01
     vertex -7.300000e+01 -4.812111e+01 -7.989488e+01
   endloop
 endfacet
 facet normal -1.000000e+00  0.000000e+00 -0.000000e+00
   outer loop
     vertex -7.300000e+01 -4.958306e+01 -7.727520e+01
     vertex -7.300000e+01 -4.812111e+01 -7.989488e+01
     vertex -7.300000e+01 -5.130475e+01 -8.092259e+01
   endloop
 endfacet
 facet normal -1.000000e+00  1.953123e-15 -5.859370e-16
   outer loop
     vertex -7.300000e+01 -1.600000e-14 -2.030000e+01
     vertex -7.300000e+01 -1.500000e+00 -4.955321e+01
     vertex -7.300000e+01 -1.500000e+00 -2.530000e+01
   endloop
 endfacet
 facet normal -1.000000e+00 -9.473903e-15  4.378263e-30
   outer loop
     vertex -7.300000e+01 -1.600000e-14 -2.030000e+01
     vertex -7.300000e+01 -1.500000e+00 -5.387745e+01
     vertex -7.300000e+01 -1.500000e+00 -4.955321e+01
   endloop
 endfacet
 facet normal -1.000000e+00  6.058659e-16 -6.239837e-16
   outer loop
     vertex -7.300000e+01 -2.641685e+01 -2.819779e+01
     vertex -7.300000e+01 -1.500000e+00 -4.955321e+01
     vertex -7.300000e+01 -3.652338e+00 -5.164306e+01
   endloop
 endfacet
 facet normal -1.000000e+00  6.034589e-16 -5.731653e-16
   outer loop
     vertex -7.300000e+01 -2.030000e+01 -2.030000e+01
     vertex -7.300000e+01 -1.500000e+00 -2.530000e+01
     vertex -7.300000e+01 -2.504900e+01 -2.530000e+01
   endloop
 endfacet
 facet normal -1.000000e+00  7.000421e-16 -2.100126e-16
   outer loop
     vertex -7.300000e+01 -2.030000e+01 -2.030000e+01
     vertex -7.300000e+01 -1.600000e-14 -2.030000e+01
     vertex -7.300000e+01 -1.500000e+00 -2.530000e+01
   endloop
 endfacet
 facet normal -1.000000e+00  0.000000e+00  0.000000e+00
   outer loop
     vertex -7.300000e+01 -2.430000e+01 -1.200000e+01
     vertex -7.300000e+01 -2.030000e+01 -1.000000e+01
     vertex -7.300000e+01 -2.030000e+01 -2.030000e+01
   endloop
 endfacet
 facet normal -1.000000e+00  0.000000e+00  0.000000e+00
   outer loop
     vertex -7.300000e+01 -2.430000e+01 -1.200000e+01
     vertex -7.300000e+01 -2.230000e+01 -1.000000e+01
     vertex -7.300000e+01 -2.030000e+01 -1.000000e+01
   endloop
 endfacet
 facet normal -1.000000e+00  0.000000e+00 -0.000000e+00
   outer loop
     vertex -7.300000e+01 -2.430000e+01 -1.200000e+01
     vertex -7.300000e+01 -2.030000e+01 -2.030000e+01
     vertex -7.300000e+01 -2.504900e+01 -2.530000e+01
   endloop
 endfacet
 facet normal -1.000000e+00  0.000000e+00  0.000000e+00
   outer loop
     vertex -7.300000e+01 -2.430000e+01 -1.200000e+01
     vertex -7.300000e+01 -2.504900e+01 -2.530000e+01
     vertex -7.300000e+01 -2.641685e+01 -2.819779e+01
   endloop
 endfacet
 facet normal -1.000000e+00  6.367218e-16 -6.618472e-16
   outer loop
     vertex -7.300000e+01 -2.430000e+01 -1.200000e+01
     vertex -7.300000e+01 -5.130475e+01 -8.092259e+01
     vertex -7.300000e+01 -8.000000e+01 -1.300000e+02
   endloop
 endfacet
 facet normal -1.000000e+00  5.140432e-15 -2.426458e-15
   outer loop
     vertex -7.300000e+01 -2.430000e+01 -1.200000e+01
     vertex -7.300000e+01 -4.958306e+01 -7.727520e+01
     vertex -7.300000e+01 -5.130475e+01 -8.092259e+01
   endloop
 endfacet
 facet normal -1.000000e+00 -1.696577e-15  2.217220e-16
   outer loop
     vertex -7.300000e+01 -2.430000e+01 -1.200000e+01
     vertex -7.300000e+01 -2.641685e+01 -2.819779e+01
     vertex -7.300000e+01 -4.958306e+01 -7.727520e+01
   endloop
 endfacet
 facet normal -1.000000e+00  1.156324e-15 -4.748824e-16
   outer loop
     vertex -7.300000e+01 -1.090000e-13 -1.400000e+02
     vertex -7.300000e+01 -1.500000e+00 -5.387745e+01
     vertex -7.300000e+01 -1.600000e-14 -2.030000e+01
   endloop
 endfacet
 facet normal -1.000000e+00  8.121106e-16 -3.833437e-16
   outer loop
     vertex -7.300000e+01 -1.500000e+00 -4.955321e+01
     vertex -7.300000e+01 -2.641685e+01 -2.819779e+01
     vertex -7.300000e+01 -2.504900e+01 -2.530000e+01
   endloop
 endfacet
 facet normal  1.000000e+00 -5.092993e-16  5.245294e-16
   outer loop
     vertex -2.300000e+01 -3.652338e+00 -1.300000e+02
     vertex -2.300000e+01 -1.340000e-13 -1.400000e+02
     vertex -2.300000e+01 -1.500000e+00 -1.279102e+02
   endloop
 endfacet
 facet normal  1.000000e+00 -3.552714e-16  1.964313e-16
   outer loop
     vertex -2.300000e+01 -7.447095e+01 -1.300000e+02
     vertex -2.300000e+01 -8.000000e+01 -1.400000e+02
     vertex -2.300000e+01 -1.340000e-13 -1.400000e+02
   endloop
 endfacet
 facet normal  1.000000e+00 -3.009983e-16  6.006080e-16
   outer loop
     vertex -2.300000e+01 -7.447095e+01 -1.300000e+02
     vertex -2.300000e+01 -1.340000e-13 -1.400000e+02
     vertex -2.300000e+01 -3.652338e+00 -1.300000e+02
   endloop
 endfacet
 facet normal  1.000000e+00 -9.557045e-17  5.758612e-16
   outer loop
     vertex -2.300000e+01 -1.500000e+00 -5.387745e+01
     vertex -2.300000e+01 -1.500000e+00 -1.279102e+02
     vertex -2.300000e+01 -1.340000e-13 -1.400000e+02
   endloop
 endfacet
 facet normal  1.000000e+00  0.000000e+00  0.000000e+00
   outer loop
     vertex -2.300000e+01 -8.000000e+01 -1.300000e+02
     vertex -2.300000e+01 -8.000000e+01 -1.400000e+02
     vertex -2.300000e+01 -7.447095e+01 -1.300000e+02
   endloop
 endfacet
 facet normal  1.000000e+00 -0.000000e+00  0.000000e+00
   outer loop
     vertex -2.300000e+01 -3.652338e+00 -5.164306e+01
     vertex -2.300000e+01 -1.500000e+00 -5.387745e+01
     vertex -2.300000e+01 -1.500000e+00 -4.955321e+01
   endloop
 endfacet
 facet normal  1.000000e+00  0.000000e+00  7.105427e-16
   outer loop
     vertex -2.300000e+01 -9.500000e+01 -1.300000e+02
     vertex -2.300000e+01 -9.500000e+01 -1.400000e+02
     vertex -2.300000e+01 -8.000000e+01 -1.400000e+02
   endloop
 endfacet
 facet normal  1.000000e+00 -4.736952e-16  0.000000e+00
   outer loop
     vertex -2.300000e+01 -9.500000e+01 -1.300000e+02
     vertex -2.300000e+01 -8.000000e+01 -1.400000e+02
     vertex -2.300000e+01 -8.000000e+01 -1.300000e+02
   endloop
 endfacet
 facet normal  1.000000e+00 -4.437553e-16  4.570254e-16
   outer loop
     vertex -2.300000e+01 -4.812111e+01 -7.989488e+01
     vertex -2.300000e+01 -3.652338e+00 -1.300000e+02
     vertex -2.300000e+01 -1.500000e+00 -1.279102e+02
   endloop
 endfacet
 facet normal  1.000000e+00  0.000000e+00  0.000000e+00
   outer loop
     vertex -2.300000e+01 -4.812111e+01 -7.989488e+01
     vertex -2.300000e+01 -1.500000e+00 -5.387745e+01
     vertex -2.300000e+01 -3.652338e+00 -5.164306e+01
   endloop
 endfacet
 facet normal  1.000000e+00  2.976927e-30  4.343400e-16
   outer loop
     vertex -2.300000e+01 -5.130475e+01 -8.092259e+01
     vertex -2.300000e+01 -8.000000e+01 -1.300000e+02
     vertex -2.300000e+01 -7.447095e+01 -1.300000e+02
   endloop
 endfacet
 facet normal  1.000000e+00 -2.134997e-16  6.613794e-16
   outer loop
     vertex -2.300000e+01 -5.130475e+01 -8.092259e+01
     vertex -2.300000e+01 -3.652338e+00 -1.300000e+02
     vertex -2.300000e+01 -4.812111e+01 -7.989488e+01
   endloop
 endfacet
 facet normal  1.000000e+00 -1.272153e-15  2.002387e-15
   outer loop
     vertex -2.300000e+01 -4.958306e+01 -7.727520e+01
     vertex -2.300000e+01 -4.812111e+01 -7.989488e+01
     vertex -2.300000e+01 -3.652338e+00 -5.164306e+01
   endloop
 endfacet
 facet normal  1.000000e+00 -7.419117e-16  2.298294e-15
   outer loop
     vertex -2.300000e+01 -4.958306e+01 -7.727520e+01
     vertex -2.300000e+01 -5.130475e+01 -8.092259e+01
     vertex -2.300000e+01 -4.812111e+01 -7.989488e+01
   endloop
 endfacet
 facet normal  1.000000e+00  2.783828e-15  5.859370e-16
   outer loop
     vertex -2.300000e+01 -4.100000e-14 -2.030000e+01
     vertex -2.300000e+01 -1.500000e+00 -2.530000e+01
     vertex -2.300000e+01 -1.500000e+00 -4.955321e+01
   endloop
 endfacet
 facet normal  1.000000e+00  1.421085e-14 -6.810632e-30
   outer loop
     vertex -2.300000e+01 -4.100000e-14 -2.030000e+01
     vertex -2.300000e+01 -1.500000e+00 -4.955321e+01
     vertex -2.300000e+01 -1.500000e+00 -5.387745e+01
   endloop
 endfacet
 facet normal  1.000000e+00 -4.543994e-16  4.679878e-16
   outer loop
     vertex -2.300000e+01 -2.641685e+01 -2.819779e+01
     vertex -2.300000e+01 -3.652338e+00 -5.164306e+01
     vertex -2.300000e+01 -1.500000e+00 -4.955321e+01
   endloop
 endfacet
 facet normal  1.000000e+00 -3.017295e-16  2.865827e-16
   outer loop
     vertex -2.300000e+01 -2.030000e+01 -2.030000e+01
     vertex -2.300000e+01 -2.504900e+01 -2.530000e+01
     vertex -2.300000e+01 -1.500000e+00 -2.530000e+01
   endloop
 endfacet
 facet normal  1.000000e+00  1.740934e-30  1.421085e-15
   outer loop
     vertex -2.300000e+01 -2.030000e+01 -2.030000e+01
     vertex -2.300000e+01 -1.500000e+00 -2.530000e+01
     vertex -2.300000e+01 -4.100000e-14 -2.030000e+01
   endloop
 endfacet
 facet normal  1.000000e+00 -3.449237e-16  6.898473e-16
   outer loop
     vertex -2.300000e+01 -2.430000e+01 -1.200000e+01
     vertex -2.300000e+01 -2.030000e+01 -2.030000e+01
     vertex -2.300000e+01 -2.030000e+01 -1.000000e+01
   endloop
 endfacet
 facet normal  1.000000e+00  0.000000e+00  0.000000e+00
   outer loop
     vertex -2.300000e+01 -2.430000e+01 -1.200000e+01
     vertex -2.300000e+01 -2.030000e+01 -1.000000e+01
     vertex -2.300000e+01 -2.230000e+01 -1.000000e+01
   endloop
 endfacet
 facet normal  1.000000e+00 -5.979318e-16  5.679157e-16
   outer loop
     vertex -2.300000e+01 -2.430000e+01 -1.200000e+01
     vertex -2.300000e+01 -2.504900e+01 -2.530000e+01
     vertex -2.300000e+01 -2.030000e+01 -2.030000e+01
   endloop
 endfacet
 facet normal  1.000000e+00 -1.285108e-15  6.066146e-16
   outer loop
     vertex -2.300000e+01 -2.430000e+01 -1.200000e+01
     vertex -2.300000e+01 -2.641685e+01 -2.819779e+01
     vertex -2.300000e+01 -2.504900e+01 -2.530000e+01
   endloop
 endfacet
 facet normal  1.000000e+00  1.138966e-16  3.677453e-16
   outer loop
     vertex -2.300000e+01 -2.430000e+01 -1.200000e+01
     vertex -2.300000e+01 -8.000000e+01 -1.300000e+02
     vertex -2.300000e+01 -5.130475e+01 -8.092259e+01
   endloop
 endfacet
 facet normal  1.000000e+00  1.914351e-14 -7.088300e-15
   outer loop
     vertex -2.300000e+01 -2.430000e+01 -1.200000e+01
     vertex -2.300000e+01 -5.130475e+01 -8.092259e+01
     vertex -2.300000e+01 -4.958306e+01 -7.727520e+01
   endloop
 endfacet
 facet normal  1.000000e+00 -4.368194e-16  4.957536e-16
   outer loop
     vertex -2.300000e+01 -2.430000e+01 -1.200000e+01
     vertex -2.300000e+01 -4.958306e+01 -7.727520e+01
     vertex -2.300000e+01 -2.641685e+01 -2.819779e+01
   endloop
 endfacet
 facet normal  1.000000e+00  9.230713e-16  5.936030e-16
   outer loop
     vertex -2.300000e+01 -1.340000e-13 -1.400000e+02
     vertex -2.300000e+01 -4.100000e-14 -2.030000e+01
     vertex -2.300000e+01 -1.500000e+00 -5.387745e+01
   endloop
 endfacet
 facet normal  1.000000e+00 -6.090829e-16  2.875078e-16
   outer loop
     vertex -2.300000e+01 -1.500000e+00 -4.955321e+01
     vertex -2.300000e+01 -2.504900e+01 -2.530000e+01
     vertex -2.300000e+01 -2.641685e+01 -2.819779e+01
   endloop
 endfacet
 facet normal -4.263256e-16 -1.000000e+00  1.724618e-15
   outer loop
     vertex -7.300000e+01  2.030000e+01 -2.030000e+01
     vertex -2.300000e+01  2.030000e+01 -2.030000e+01
     vertex -2.300000e+01  2.030000e+01 -1.000000e+01
   endloop
 endfacet
 facet normal -4.263256e-16 -1.000000e+00  1.724618e-15
   outer loop
     vertex -7.300000e+01  2.030000e+01 -1.000000e+01
     vertex -7.300000e+01  2.030000e+01 -2.030000e+01
     vertex -2.300000e+01  2.030000e+01 -1.000000e+01
   endloop
 endfacet
 facet normal -1.000000e+00 -1.018599e-15 -1.049059e-15
   outer loop
     vertex -7.300000e+01  3.652338e+00 -1.300000e+02
     vertex -7.300000e+01 -1.090000e-13 -1.400000e+02
     vertex -7.300000e+01  1.500000e+00 -1.279102e+02
   endloop
 endfacet
 facet normal -1.000000e+00  7.105427e-16  3.928627e-16
   outer loop
     vertex -7.300000e+01  7.447095e+01 -1.300000e+02
     vertex -7.300000e+01  8.000000e+01 -1.400000e+02
     vertex -7.300000e+01 -1.090000e-13 -1.400000e+02
   endloop
 endfacet
 facet normal -1.000000e+00  1.003328e-15 -1.787535e-15
   outer loop
     vertex -7.300000e+01  7.447095e+01 -1.300000e+02
     vertex -7.300000e+01 -1.090000e-13 -1.400000e+02
     vertex -7.300000e+01  3.652338e+00 -1.300000e+02
   endloop
 endfacet
 facet normal -1.000000e+00 -6.379649e-15 -3.839075e-16
   outer loop
     vertex -7.300000e+01  1.500000e+00 -5.387745e+01
     vertex -7.300000e+01  1.500000e+00 -1.279102e+02
     vertex -7.300000e+01 -1.090000e-13 -1.400000e+02
   endloop
 endfacet
 facet normal -1.000000e+00 -0.000000e+00  0.000000e+00
   outer loop
     vertex -7.300000e+01  8.000000e+01 -1.300000e+02
     vertex -7.300000e+01  8.000000e+01 -1.400000e+02
     vertex -7.300000e+01  7.447095e+01 -1.300000e+02
   endloop
 endfacet
 facet normal -1.000000e+00 -0.000000e+00  0.000000e+00
   outer loop
     vertex -7.300000e+01  3.652338e+00 -5.164306e+01
     vertex -7.300000e+01  1.500000e+00 -5.387745e+01
     vertex -7.300000e+01  1.500000e+00 -4.955321e+01
   endloop
 endfacet
 facet normal -1.000000e+00  9.473903e-16 -1.346323e-30
   outer loop
     vertex -7.300000e+01  9.500000e+01 -1.300000e+02
     vertex -7.300000e+01  9.500000e+01 -1.400000e+02
     vertex -7.300000e+01  8.000000e+01 -1.400000e+02
   endloop
 endfacet
 facet normal -1.000000e+00  9.473903e-16 -1.346323e-30
   outer loop
     vertex -7.300000e+01  9.500000e+01 -1.300000e+02
     vertex -7.300000e+01  8.000000e+01 -1.400000e+02
     vertex -7.300000e+01  8.000000e+01 -1.300000e+02
   endloop
 endfacet
 facet normal -1.000000e+00  1.479184e-16  1.523418e-16
   outer loop
     vertex -7.300000e+01  4.812111e+01 -7.989488e+01
     vertex -7.300000e+01  3.652338e+00 -1.300000e+02
     vertex -7.300000e+01  1.500000e+00 -1.279102e+02
   endloop
 endfacet
 facet normal -1.000000e+00  5.947372e-16 -5.728950e-16
   outer loop
     vertex -7.300000e+01  4.812111e+01 -7.989488e+01
     vertex -7.300000e+01  1.500000e+00 -5.387745e+01
     vertex -7.300000e+01  3.652338e+00 -5.164306e+01
   endloop
 endfacet
 facet normal -1.000000e+00 -5.953854e-30 -8.686799e-16
   outer loop
     vertex -7.300000e+01  5.130475e+01 -8.092259e+01
     vertex -7.300000e+01  8.000000e+01 -1.300000e+02
     vertex -7.300000e+01  7.447095e+01 -1.300000e+02
   endloop
 endfacet
 facet normal -1.000000e+00  3.540840e-15 -2.858908e-15
   outer loop
     vertex -7.300000e+01  5.130475e+01 -8.092259e+01
     vertex -7.300000e+01  3.652338e+00 -1.300000e+02
     vertex -7.300000e+01  4.812111e+01 -7.989488e+01
   endloop
 endfacet
 facet normal -1.000000e+00  7.077704e-16 -3.949791e-16
   outer loop
     vertex -7.300000e+01  4.958306e+01 -7.727520e+01
     vertex -7.300000e+01  4.812111e+01 -7.989488e+01
     vertex -7.300000e+01  3.652338e+00 -5.164306e+01
   endloop
 endfacet
 facet normal -1.000000e+00  3.782343e-15 -2.110778e-15
   outer loop
     vertex -7.300000e+01  4.958306e+01 -7.727520e+01
     vertex -7.300000e+01  5.130475e+01 -8.092259e+01
     vertex -7.300000e+01  4.812111e+01 -7.989488e+01
   endloop
 endfacet
 facet normal -1.000000e+00 -1.953123e-15 -5.859370e-16
   outer loop
     vertex -7.300000e+01 -1.600000e-14 -2.030000e+01
     vertex -7.300000e+01  1.500000e+00 -2.530000e+01
     vertex -7.300000e+01  1.500000e+00 -4.955321e+01
   endloop
 endfacet
 facet normal -1.000000e+00  9.473903e-15 -1.118889e-29
   outer loop
     vertex -7.300000e+01 -1.600000e-14 -2.030000e+01
     vertex -7.300000e+01  1.500000e+00 -4.955321e+01
     vertex -7.300000e+01  1.500000e+00 -5.387745e+01
   endloop
 endfacet
 facet normal -1.000000e+00  3.029329e-16  3.119919e-16
   outer loop
     vertex -7.300000e+01  2.641685e+01 -2.819779e+01
     vertex -7.300000e+01  3.652338e+00 -5.164306e+01
     vertex -7.300000e+01  1.500000e+00 -4.955321e+01
   endloop
 endfacet
 facet normal -1.000000e+00  6.034589e-16  5.731653e-16
   outer loop
     vertex -7.300000e+01  2.030000e+01 -2.030000e+01
     vertex -7.300000e+01  2.504900e+01 -2.530000e+01
     vertex -7.300000e+01  1.500000e+00 -2.530000e+01
   endloop
 endfacet
 facet normal -1.000000e+00  7.000421e-16  2.100126e-16
   outer loop
     vertex -7.300000e+01  2.030000e+01 -2.030000e+01
     vertex -7.300000e+01  1.500000e+00 -2.530000e+01
     vertex -7.300000e+01 -1.600000e-14 -2.030000e+01
   endloop
 endfacet
 facet normal -1.000000e+00 -0.000000e+00  0.000000e+00
   outer loop
     vertex -7.300000e+01  2.430000e+01 -1.200000e+01
     vertex -7.300000e+01  2.030000e+01 -2.030000e+01
     vertex -7.300000e+01  2.030000e+01 -1.000000e+01
   endloop
 endfacet
 facet normal -1.000000e+00  0.000000e+00  0.000000e+00
   outer loop
     vertex -7.300000e+01  2.430000e+01 -1.200000e+01
     vertex -7.300000e+01  2.030000e+01 -1.000000e+01
     vertex -7.300000e+01  2.230000e+01 -1.000000e+01
   endloop
 endfacet
 facet normal -1.000000e+00  0.000000e+00 -0.000000e+00
   outer loop
     vertex -7.300000e+01  2.430000e+01 -1.200000e+01
     vertex -7.300000e+01  2.504900e+01 -2.530000e+01
     vertex -7.300000e+01  2.030000e+01 -2.030000e+01
   endloop
 endfacet
 facet normal -1.000000e+00  1.179655e-14  6.643321e-16
   outer loop
     vertex -7.300000e+01  2.430000e+01 -1.200000e+01
     vertex -7.300000e+01  2.641685e+01 -2.819779e+01
     vertex -7.300000e+01  2.504900e+01 -2.530000e+01
   endloop
 endfacet
 facet normal -1.000000e+00  2.241890e-15  2.152315e-16
   outer loop
     vertex -7.300000e+01  2.430000e+01 -1.200000e+01
     vertex -7.300000e+01  8.000000e+01 -1.300000e+02
     vertex -7.300000e+01  4.958306e+01 -7.727520e+01
   endloop
 endfacet
 facet normal -1.000000e+00 -2.687288e-14 -1.658108e-14
   outer loop
     vertex -7.300000e+01  4.958306e+01 -7.727520e+01
     vertex -7.300000e+01  8.000000e+01 -1.300000e+02
     vertex -7.300000e+01  5.130475e+01 -8.092259e+01
   endloop
 endfacet
 facet normal -1.000000e+00 -8.736388e-16 -9.915071e-16
   outer loop
     vertex -7.300000e+01  2.430000e+01 -1.200000e+01
     vertex -7.300000e+01  4.958306e+01 -7.727520e+01
     vertex -7.300000e+01  2.641685e+01 -2.819779e+01
   endloop
 endfacet
 facet normal -1.000000e+00 -1.156324e-15 -4.748824e-16
   outer loop
     vertex -7.300000e+01 -1.090000e-13 -1.400000e+02
     vertex -7.300000e+01 -1.600000e-14 -2.030000e+01
     vertex -7.300000e+01  1.500000e+00 -5.387745e+01
   endloop
 endfacet
 facet normal -1.000000e+00  3.398506e-15 -3.299828e-15
   outer loop
     vertex -7.300000e+01  1.500000e+00 -4.955321e+01
     vertex -7.300000e+01  2.504900e+01 -2.530000e+01
     vertex -7.300000e+01  2.641685e+01 -2.819779e+01
   endloop
 endfacet
 facet normal  1.000000e+00  5.092993e-16  5.245294e-16
   outer loop
     vertex -2.300000e+01  3.652338e+00 -1.300000e+02
     vertex -2.300000e+01  1.500000e+00 -1.279102e+02
     vertex -2.300000e+01 -1.340000e-13 -1.400000e+02
   endloop
 endfacet
 facet normal  1.000000e+00 -7.993606e-16  2.685722e-16
   outer loop
     vertex -2.300000e+01  7.447095e+01 -1.300000e+02
     vertex -2.300000e+01 -1.340000e-13 -1.400000e+02
     vertex -2.300000e+01  8.000000e+01 -1.400000e+02
   endloop
 endfacet
 facet normal  1.000000e+00 -9.029949e-16  1.040347e-15
   outer loop
     vertex -2.300000e+01  7.447095e+01 -1.300000e+02
     vertex -2.300000e+01  3.652338e+00 -1.300000e+02
     vertex -2.300000e+01 -1.340000e-13 -1.400000e+02
   endloop
 endfacet
 facet normal  1.000000e+00  1.642697e-15  3.839075e-16
   outer loop
     vertex -2.300000e+01  1.500000e+00 -5.387745e+01
     vertex -2.300000e+01 -1.340000e-13 -1.400000e+02
     vertex -2.300000e+01  1.500000e+00 -1.279102e+02
   endloop
 endfacet
 facet normal  1.000000e+00  3.652497e-30  7.105427e-16
   outer loop
     vertex -2.300000e+01  8.000000e+01 -1.300000e+02
     vertex -2.300000e+01  7.447095e+01 -1.300000e+02
     vertex -2.300000e+01  8.000000e+01 -1.400000e+02
   endloop
 endfacet
 facet normal  1.000000e+00  1.595451e-15  1.643162e-15
   outer loop
     vertex -2.300000e+01  3.652338e+00 -5.164306e+01
     vertex -2.300000e+01  1.500000e+00 -4.955321e+01
     vertex -2.300000e+01  1.500000e+00 -5.387745e+01
   endloop
 endfacet
 facet normal  1.000000e+00 -9.473903e-16  1.346323e-30
   outer loop
     vertex -2.300000e+01  9.500000e+01 -1.300000e+02
     vertex -2.300000e+01  8.000000e+01 -1.400000e+02
     vertex -2.300000e+01  9.500000e+01 -1.400000e+02
   endloop
 endfacet
 facet normal  1.000000e+00 -1.421085e-15  7.105427e-16
   outer loop
     vertex -2.300000e+01  9.500000e+01 -1.300000e+02
     vertex -2.300000e+01  8.000000e+01 -1.300000e+02
     vertex -2.300000e+01  8.000000e+01 -1.400000e+02
   endloop
 endfacet
 facet normal  1.000000e+00 -2.218776e-16 -2.285127e-16
   outer loop
     vertex -2.300000e+01  4.812111e+01 -7.989488e+01
     vertex -2.300000e+01  1.500000e+00 -1.279102e+02
     vertex -2.300000e+01  3.652338e+00 -1.300000e+02
   endloop
 endfacet
 facet normal  1.000000e+00  4.603311e-16  2.736594e-15
   outer loop
     vertex -2.300000e+01  4.812111e+01 -7.989488e+01
     vertex -2.300000e+01  3.652338e+00 -5.164306e+01
     vertex -2.300000e+01  1.500000e+00 -5.387745e+01
   endloop
 endfacet
 facet normal  1.000000e+00  2.976927e-30  7.239000e-16
   outer loop
     vertex -2.300000e+01  5.130475e+01 -8.092259e+01
     vertex -2.300000e+01  7.447095e+01 -1.300000e+02
     vertex -2.300000e+01  8.000000e+01 -1.300000e+02
   endloop
 endfacet
 facet normal  1.000000e+00 -1.841586e-15  1.208994e-15
   outer loop
     vertex -2.300000e+01  5.130475e+01 -8.092259e+01
     vertex -2.300000e+01  4.812111e+01 -7.989488e+01
     vertex -2.300000e+01  3.652338e+00 -1.300000e+02
   endloop
 endfacet
 facet normal  1.000000e+00 -9.436939e-16  5.266388e-16
   outer loop
     vertex -2.300000e+01  4.958306e+01 -7.727520e+01
     vertex -2.300000e+01  3.652338e+00 -5.164306e+01
     vertex -2.300000e+01  4.812111e+01 -7.989488e+01
   endloop
 endfacet
 facet normal  1.000000e+00 -1.891172e-15  1.055389e-15
   outer loop
     vertex -2.300000e+01  4.958306e+01 -7.727520e+01
     vertex -2.300000e+01  4.812111e+01 -7.989488e+01
     vertex -2.300000e+01  5.130475e+01 -8.092259e+01
   endloop
 endfacet
 facet normal  1.000000e+00 -7.520780e-15  5.859370e-16
   outer loop
     vertex -2.300000e+01 -4.100000e-14 -2.030000e+01
     vertex -2.300000e+01  1.500000e+00 -4.955321e+01
     vertex -2.300000e+01  1.500000e+00 -2.530000e+01
   endloop
 endfacet
 facet normal  1.000000e+00  1.309737e-14  1.643162e-15
   outer loop
     vertex -2.300000e+01 -4.100000e-14 -2.030000e+01
     vertex -2.300000e+01  1.500000e+00 -5.387745e+01
     vertex -2.300000e+01  1.500000e+00 -4.955321e+01
   endloop
 endfacet
 facet normal  1.000000e+00 -1.514665e-16 -1.559959e-16
   outer loop
     vertex -2.300000e+01  2.641685e+01 -2.819779e+01
     vertex -2.300000e+01  1.500000e+00 -4.955321e+01
     vertex -2.300000e+01  3.652338e+00 -5.164306e+01
   endloop
 endfacet
 facet normal  1.000000e+00 -9.051884e-16  5.613375e-16
   outer loop
     vertex -2.300000e+01  2.030000e+01 -2.030000e+01
     vertex -2.300000e+01  1.500000e+00 -2.530000e+01
     vertex -2.300000e+01  2.504900e+01 -2.530000e+01
   endloop
 endfacet
 facet normal  1.000000e+00 -1.400084e-15  2.422146e-15
   outer loop
     vertex -2.300000e+01  2.030000e+01 -2.030000e+01
     vertex -2.300000e+01 -4.100000e-14 -2.030000e+01
     vertex -2.300000e+01  1.500000e+00 -2.530000e+01
   endloop
 endfacet
 facet normal  1.000000e+00  0.000000e+00  0.000000e+00
   outer loop
     vertex -2.300000e+01  2.430000e+01 -1.200000e+01
     vertex -2.300000e+01  2.030000e+01 -1.000000e+01
     vertex -2.300000e+01  2.030000e+01 -2.030000e+01
   endloop
 endfacet
 facet normal  1.000000e+00 -9.925668e-16  4.783455e-16
   outer loop
     vertex -2.300000e+01  2.430000e+01 -1.200000e+01
     vertex -2.300000e+01  2.030000e+01 -2.030000e+01
     vertex -2.300000e+01  2.504900e+01 -2.530000e+01
   endloop
 endfacet
 facet normal  1.000000e+00  1.285108e-15  6.066146e-16
   outer loop
     vertex -2.300000e+01  2.430000e+01 -1.200000e+01
     vertex -2.300000e+01  2.504900e+01 -2.530000e+01
     vertex -2.300000e+01  2.641685e+01 -2.819779e+01
   endloop
 endfacet
 facet normal  1.000000e+00  0.000000e+00  0.000000e+00
   outer loop
     vertex -2.300000e+01  2.230000e+01 -1.000000e+01
     vertex -2.300000e+01  2.030000e+01 -1.000000e+01
     vertex -2.300000e+01  2.430000e+01 -1.200000e+01
   endloop
 endfacet
 facet normal  1.000000e+00  3.283257e-16  9.979976e-16
   outer loop
     vertex -2.300000e+01  2.430000e+01 -1.200000e+01
     vertex -2.300000e+01  4.958306e+01 -7.727520e+01
     vertex -2.300000e+01  8.000000e+01 -1.300000e+02
   endloop
 endfacet
 facet normal  1.000000e+00  1.086622e-14  7.077312e-15
   outer loop
     vertex -2.300000e+01  4.958306e+01 -7.727520e+01
     vertex -2.300000e+01  5.130475e+01 -8.092259e+01
     vertex -2.300000e+01  8.000000e+01 -1.300000e+02
   endloop
 endfacet
 facet normal  1.000000e+00 -1.683902e-15  2.186010e-16
   outer loop
     vertex -2.300000e+01  2.430000e+01 -1.200000e+01
     vertex -2.300000e+01  2.641685e+01 -2.819779e+01
     vertex -2.300000e+01  4.958306e+01 -7.727520e+01
   endloop
 endfacet
 facet normal  1.000000e+00 -1.039697e-14  5.936030e-16
   outer loop
     vertex -2.300000e+01 -1.340000e-13 -1.400000e+02
     vertex -2.300000e+01  1.500000e+00 -5.387745e+01
     vertex -2.300000e+01 -4.100000e-14 -2.030000e+01
   endloop
 endfacet
 facet normal  1.000000e+00 -2.030276e-16 -9.583593e-17
   outer loop
     vertex -2.300000e+01  1.500000e+00 -4.955321e+01
     vertex -2.300000e+01  2.641685e+01 -2.819779e+01
     vertex -2.300000e+01  2.504900e+01 -2.530000e+01
   endloop
 endfacet
 facet normal -3.907985e-16  8.881784e-16  1.000000e+00
   outer loop
     vertex -7.300000e+01 -2.030000e+01 -1.000000e+01
     vertex -2.300000e+01 -2.230000e+01 -1.000000e+01
     vertex -2.300000e+01 -2.030000e+01 -1.000000e+01
   endloop
 endfacet
 facet normal -3.907985e-16  8.881784e-16  1.000000e+00
   outer loop
     vertex -7.300000e+01 -2.230000e+01 -1.000000e+01
     vertex -2.300000e+01 -2.230000e+01 -1.000000e+01
     vertex -7.300000e+01 -2.030000e+01 -1.000000e+01
   endloop
 endfacet
 facet normal -6.782799e-16 -7.071068e-01  7.071068e-01
   outer loop
     vertex -7.300000e+01 -2.230000e+01 -1.000000e+01
     vertex -2.300000e+01 -2.430000e+01 -1.200000e+01
     vertex -2.300000e+01 -2.230000e+01 -1.000000e+01
   endloop
 endfacet
 facet normal -6.782799e-16 -7.071068e-01  7.071068e-01
   outer loop
     vertex -7.300000e+01 -2.430000e+01 -1.200000e+01
     vertex -2.300000e+01 -2.430000e+01 -1.200000e+01
     vertex -7.300000e+01 -2.230000e+01 -1.000000e+01
   endloop
 endfacet
 facet normal -5.576062e-16 -9.043144e-01  4.268670e-01
   outer loop
     vertex -7.300000e+01 -8.000000e+01 -1.300000e+02
     vertex -2.300000e+01 -2.430000e+01 -1.200000e+01
     vertex -7.300000e+01 -2.430000e+01 -1.200000e+01
   endloop
 endfacet
 facet normal -7.566890e-16 -9.043144e-01  4.268670e-01
   outer loop
     vertex -7.300000e+01 -8.000000e+01 -1.300000e+02
     vertex -2.300000e+01 -8.000000e+01 -1.300000e+02
     vertex -2.300000e+01 -2.430000e+01 -1.200000e+01
   endloop
 endfacet
 facet normal -5.684342e-16  0.000000e+00  1.000000e+00
   outer loop
     vertex -7.300000e+01 -9.500000e+01 -1.300000e+02
     vertex -2.300000e+01 -8.000000e+01 -1.300000e+02
     vertex -7.300000e+01 -8.000000e+01 -1.300000e+02
   endloop
 endfacet
 facet normal -5.684342e-16  2.692645e-31  1.000000e+00
   outer loop
     vertex -7.300000e+01 -9.500000e+01 -1.300000e+02
     vertex -2.300000e+01 -9.500000e+01 -1.300000e+02
     vertex -2.300000e+01 -8.000000e+01 -1.300000e+02
   endloop
 endfacet
 facet normal -5.684342e-16 -1.000000e+00 -4.038968e-31
   outer loop
     vertex -7.300000e+01 -9.500000e+01 -1.300000e+02
     vertex -2.300000e+01 -9.500000e+01 -1.400000e+02
     vertex -2.300000e+01 -9.500000e+01 -1.300000e+02
   endloop
 endfacet
 facet normal -5.684342e-16 -1.000000e+00  0.000000e+00
   outer loop
     vertex -7.300000e+01 -9.500000e+01 -1.400000e+02
     vertex -2.300000e+01 -9.500000e+01 -1.400000e+02
     vertex -7.300000e+01 -9.500000e+01 -1.300000e+02
   endloop
 endfacet
 facet normal  5.684342e-16  0.000000e+00 -1.000000e+00
   outer loop
     vertex -7.300000e+01 -9.500000e+01 -1.400000e+02
     vertex -2.300000e+01 -8.000000e+01 -1.400000e+02
     vertex -2.300000e+01 -9.500000e+01 -1.400000e+02
   endloop
 endfacet
 facet normal  5.684342e-16 -5.385290e-31 -1.000000e+00
   outer loop
     vertex -7.300000e+01 -8.000000e+01 -1.400000e+02
     vertex -2.300000e+01 -8.000000e+01 -1.400000e+02
     vertex -7.300000e+01 -9.500000e+01 -1.400000e+02
   endloop
 endfacet
 facet normal  5.684342e-16 -1.065814e-15 -1.000000e+00
   outer loop
     vertex -2.300000e+01 -1.340000e-13 -1.400000e+02
     vertex -2.300000e+01 -8.000000e+01 -1.400000e+02
     vertex -7.300000e+01 -8.000000e+01 -1.400000e+02
   endloop
 endfacet
 facet normal -3.552714e-31 -7.105427e-16 -1.000000e+00
   outer loop
     vertex -7.300000e+01 -1.090000e-13 -1.400000e+02
     vertex -2.300000e+01 -1.340000e-13 -1.400000e+02
     vertex -7.300000e+01 -8.000000e+01 -1.400000e+02
   endloop
 endfacet
 facet normal  6.814039e-16  4.873139e-01 -8.732269e-01
   outer loop
     vertex -7.300000e+01 -4.812111e+01 -7.989488e+01
     vertex -7.300000e+01 -1.500000e+00 -5.387745e+01
     vertex -2.300000e+01 -1.500000e+00 -5.387745e+01
   endloop
 endfacet
 facet normal  5.251919e-16  4.873139e-01 -8.732269e-01
   outer loop
     vertex -7.300000e+01 -4.812111e+01 -7.989488e+01
     vertex -2.300000e+01 -1.500000e+00 -5.387745e+01
     vertex -2.300000e+01 -4.812111e+01 -7.989488e+01
   endloop
 endfacet
 facet normal  1.358970e-16  7.174459e-01  6.966142e-01
   outer loop
     vertex -7.300000e+01 -1.500000e+00 -1.279102e+02
     vertex -7.300000e+01 -4.812111e+01 -7.989488e+01
     vertex -2.300000e+01 -4.812111e+01 -7.989488e+01
   endloop
 endfacet
 facet normal  2.034589e-16  7.174459e-01  6.966142e-01
   outer loop
     vertex -7.300000e+01 -1.500000e+00 -1.279102e+02
     vertex -2.300000e+01 -4.812111e+01 -7.989488e+01
     vertex -2.300000e+01 -1.500000e+00 -1.279102e+02
   endloop
 endfacet
 facet normal -5.595524e-16 -1.000000e+00  4.468923e-16
   outer loop
     vertex -7.300000e+01 -1.500000e+00 -1.279102e+02
     vertex -2.300000e+01 -1.500000e+00 -5.387745e+01
     vertex -7.300000e+01 -1.500000e+00 -5.387745e+01
   endloop
 endfacet
 facet normal -5.595524e-16 -1.000000e+00  4.468923e-16
   outer loop
     vertex -7.300000e+01 -1.500000e+00 -1.279102e+02
     vertex -2.300000e+01 -1.500000e+00 -1.279102e+02
     vertex -2.300000e+01 -1.500000e+00 -5.387745e+01
   endloop
 endfacet
 facet normal  6.703443e-16  9.043144e-01 -4.268670e-01
   outer loop
     vertex -7.300000e+01 -7.447095e+01 -1.300000e+02
     vertex -7.300000e+01 -5.130475e+01 -8.092259e+01
     vertex -2.300000e+01 -5.130475e+01 -8.092259e+01
   endloop
 endfacet
 facet normal  7.566890e-16  9.043144e-01 -4.268670e-01
   outer loop
     vertex -7.300000e+01 -7.447095e+01 -1.300000e+02
     vertex -2.300000e+01 -5.130475e+01 -8.092259e+01
     vertex -2.300000e+01 -7.447095e+01 -1.300000e+02
   endloop
 endfacet
 facet normal -5.684342e-16  4.013311e-16  1.000000e+00
   outer loop
     vertex -2.300000e+01 -3.652338e+00 -1.300000e+02
     vertex -7.300000e+01 -7.447095e+01 -1.300000e+02
     vertex -2.300000e+01 -7.447095e+01 -1.300000e+02
   endloop
 endfacet
 facet normal -5.684342e-16  4.013311e-16  1.000000e+00
   outer loop
     vertex -7.300000e+01 -3.652338e+00 -1.300000e+02
     vertex -7.300000e+01 -7.447095e+01 -1.300000e+02
     vertex -2.300000e+01 -3.652338e+00 -1.300000e+02
   endloop
 endfacet
 facet normal  0.000000e+00 -7.174459e-01 -6.966142e-01
   outer loop
     vertex -7.300000e+01 -5.130475e+01 -8.092259e+01
     vertex -7.300000e+01 -3.652338e+00 -1.300000e+02
     vertex -2.300000e+01 -3.652338e+00 -1.300000e+02
   endloop
 endfacet
 facet normal -2.098311e-16 -7.174459e-01 -6.966142e-01
   outer loop
     vertex -7.300000e+01 -5.130475e+01 -8.092259e+01
     vertex -2.300000e+01 -3.652338e+00 -1.300000e+02
     vertex -2.300000e+01 -5.130475e+01 -8.092259e+01
   endloop
 endfacet
 facet normal  6.703443e-16  9.043144e-01 -4.268670e-01
   outer loop
     vertex -7.300000e+01 -4.958306e+01 -7.727520e+01
     vertex -7.300000e+01 -2.641685e+01 -2.819779e+01
     vertex -2.300000e+01 -2.641685e+01 -2.819779e+01
   endloop
 endfacet
 facet normal  6.353661e-16  9.043144e-01 -4.268670e-01
   outer loop
     vertex -7.300000e+01 -4.958306e+01 -7.727520e+01
     vertex -2.300000e+01 -2.641685e+01 -2.819779e+01
     vertex -2.300000e+01 -4.958306e+01 -7.727520e+01
   endloop
 endfacet
 facet normal -6.051905e-16 -4.873139e-01  8.732269e-01
   outer loop
     vertex -2.300000e+01 -3.652338e+00 -5.164306e+01
     vertex -7.300000e+01 -4.958306e+01 -7.727520e+01
     vertex -2.300000e+01 -4.958306e+01 -7.727520e+01
   endloop
 endfacet
 facet normal -6.449567e-16 -4.873139e-01  8.732269e-01
   outer loop
     vertex -7.300000e+01 -3.652338e+00 -5.164306e+01
     vertex -7.300000e+01 -4.958306e+01 -7.727520e+01
     vertex -2.300000e+01 -3.652338e+00 -5.164306e+01
   endloop
 endfacet
 facet normal -1.391567e-16 -7.174459e-01 -6.966142e-01
   outer loop
     vertex -7.300000e+01 -2.641685e+01 -2.819779e+01
     vertex -7.300000e+01 -3.652338e+00 -5.164306e+01
     vertex -2.300000e+01 -3.652338e+00 -5.164306e+01
   endloop
 endfacet
 facet normal -1.603337e-16 -7.174459e-01 -6.966142e-01
   outer loop
     vertex -7.300000e+01 -2.641685e+01 -2.819779e+01
     vertex -2.300000e+01 -3.652338e+00 -5.164306e+01
     vertex -2.300000e+01 -2.641685e+01 -2.819779e+01
   endloop
 endfacet
 facet normal  3.552714e-16 -7.543237e-16 -1.000000e+00
   outer loop
     vertex -7.300000e+01 -2.504900e+01 -2.530000e+01
     vertex -7.300000e+01 -1.500000e+00 -2.530000e+01
     vertex -2.300000e+01 -1.500000e+00 -2.530000e+01
   endloop
 endfacet
 facet normal  3.552714e-16 -7.543237e-16 -1.000000e+00
   outer loop
     vertex -7.300000e+01 -2.504900e+01 -2.530000e+01
     vertex -2.300000e+01 -1.500000e+00 -2.530000e+01
     vertex -2.300000e+01 -2.504900e+01 -2.530000e+01
   endloop
 endfacet
 facet normal  1.603337e-16  7.174459e-01  6.966142e-01
   outer loop
     vertex -7.300000e+01 -2.504900e+01 -2.530000e+01
     vertex -2.300000e+01 -2.504900e+01 -2.530000e+01
     vertex -2.300000e+01 -1.500000e+00 -4.955321e+01
   endloop
 endfacet
 facet normal  1.044641e-16  7.174459e-01  6.966142e-01
   outer loop
     vertex -7.300000e+01 -1.500000e+00 -4.955321e+01
     vertex -7.300000e+01 -2.504900e+01 -2.530000e+01
     vertex -2.300000e+01 -1.500000e+00 -4.955321e+01
   endloop
 endfacet
 facet normal -5.595524e-16 -1.000000e+00  4.119870e-16
   outer loop
     vertex -7.300000e+01 -1.500000e+00 -4.955321e+01
     vertex -2.300000e+01 -1.500000e+00 -2.530000e+01
     vertex -7.300000e+01 -1.500000e+00 -2.530000e+01
   endloop
 endfacet
 facet normal -5.595524e-16 -1.000000e+00  4.119870e-16
   outer loop
     vertex -7.300000e+01 -1.500000e+00 -4.955321e+01
     vertex -2.300000e+01 -1.500000e+00 -4.955321e+01
     vertex -2.300000e+01 -1.500000e+00 -2.530000e+01
   endloop
 endfacet
 facet normal -3.552714e-17  0.000000e+00  1.000000e+00
   outer loop
     vertex -7.300000e+01  2.030000e+01 -1.000000e+01
     vertex -2.300000e+01  2.030000e+01 -1.000000e+01
     vertex -2.300000e+01  2.230000e+01 -1.000000e+01
   endloop
 endfacet
 facet normal -3.552714e-17  0.000000e+00  1.000000e+00
   outer loop
     vertex -7.300000e+01  2.230000e+01 -1.000000e+01
     vertex -7.300000e+01  2.030000e+01 -1.000000e+01
     vertex -2.300000e+01  2.230000e+01 -1.000000e+01
   endloop
 endfacet
 facet normal  2.763363e-16  7.071068e-01  7.071068e-01
   outer loop
     vertex -7.300000e+01  2.230000e+01 -1.000000e+01
     vertex -2.300000e+01  2.230000e+01 -1.000000e+01
     vertex -2.300000e+01  2.430000e+01 -1.200000e+01
   endloop
 endfacet
 facet normal  2.763363e-16  7.071068e-01  7.071068e-01
   outer loop
     vertex -7.300000e+01  2.430000e+01 -1.200000e+01
     vertex -7.300000e+01  2.230000e+01 -1.000000e+01
     vertex -2.300000e+01  2.430000e+01 -1.200000e+01
   endloop
 endfacet
 facet normal  2.788031e-16  9.043144e-01  4.268670e-01
   outer loop
     vertex -7.300000e+01  8.000000e+01 -1.300000e+02
     vertex -7.300000e+01  2.430000e+01 -1.200000e+01
     vertex -2.300000e+01  2.430000e+01 -1.200000e+01
   endloop
 endfacet
 facet normal  2.570216e-16  9.043144e-01  4.268670e-01
   outer loop
     vertex -7.300000e+01  8.000000e+01 -1.300000e+02
     vertex -2.300000e+01  2.430000e+01 -1.200000e+01
     vertex -2.300000e+01  8.000000e+01 -1.300000e+02
   endloop
 endfacet
 facet normal -0.000000e+00  0.000000e+00  1.000000e+00
   outer loop
     vertex -7.300000e+01  8.000000e+01 -1.300000e+02
     vertex -2.300000e+01  8.000000e+01 -1.300000e+02
     vertex -2.300000e+01  9.500000e+01 -1.300000e+02
   endloop
 endfacet
 facet normal  0.000000e+00  0.000000e+00  1.000000e+00
   outer loop
     vertex -7.300000e+01  9.500000e+01 -1.300000e+02
     vertex -7.300000e+01  8.000000e+01 -1.300000e+02
     vertex -2.300000e+01  9.500000e+01 -1.300000e+02
   endloop
 endfacet
 facet normal  2.842171e-16  1.000000e+00 -1.421085e-15
   outer loop
     vertex -7.300000e+01  9.500000e+01 -1.400000e+02
     vertex -7.300000e+01  9.500000e+01 -1.300000e+02
     vertex -2.300000e+01  9.500000e+01 -1.300000e+02
   endloop
 endfacet
 facet normal  2.842171e-16  1.000000e+00 -1.421085e-15
   outer loop
     vertex -7.300000e+01  9.500000e+01 -1.400000e+02
     vertex -2.300000e+01  9.500000e+01 -1.300000e+02
     vertex -2.300000e+01  9.500000e+01 -1.400000e+02
   endloop
 endfacet
 facet normal  0.000000e+00  0.000000e+00 -1.000000e+00
   outer loop
     vertex -7.300000e+01  8.000000e+01 -1.400000e+02
     vertex -7.300000e+01  9.500000e+01 -1.400000e+02
     vertex -2.300000e+01  9.500000e+01 -1.400000e+02
   endloop
 endfacet
 facet normal  0.000000e+00  0.000000e+00 -1.000000e+00
   outer loop
     vertex -7.300000e+01  8.000000e+01 -1.400000e+02
     vertex -2.300000e+01  9.500000e+01 -1.400000e+02
     vertex -2.300000e+01  8.000000e+01 -1.400000e+02
   endloop
 endfacet
 facet normal -2.019484e-31 -1.065814e-15 -1.000000e+00
   outer loop
     vertex -7.300000e+01 -1.090000e-13 -1.400000e+02
     vertex -7.300000e+01  8.000000e+01 -1.400000e+02
     vertex -2.300000e+01  8.000000e+01 -1.400000e+02
   endloop
 endfacet
 facet normal -5.329071e-31 -1.065814e-15 -1.000000e+00
   outer loop
     vertex -7.300000e+01 -1.090000e-13 -1.400000e+02
     vertex -2.300000e+01  8.000000e+01 -1.400000e+02
     vertex -2.300000e+01 -1.340000e-13 -1.400000e+02
   endloop
 endfacet
 facet normal -8.517549e-17 -4.873139e-01 -8.732269e-01
   outer loop
     vertex -7.300000e+01  4.812111e+01 -7.989488e+01
     vertex -2.300000e+01  1.500000e+00 -5.387745e+01
     vertex -7.300000e+01  1.500000e+00 -5.387745e+01
   endloop
 endfacet
 facet normal -2.770059e-16 -4.873139e-01 -8.732269e-01
   outer loop
     vertex -7.300000e+01  4.812111e+01 -7.989488e+01
     vertex -2.300000e+01  4.812111e+01 -7.989488e+01
     vertex -2.300000e+01  1.500000e+00 -5.387745e+01
   endloop
 endfacet
 facet normal -4.076910e-16 -7.174459e-01  6.966142e-01
   outer loop
     vertex -7.300000e+01  1.500000e+00 -1.279102e+02
     vertex -2.300000e+01  4.812111e+01 -7.989488e+01
     vertex -7.300000e+01  4.812111e+01 -7.989488e+01
   endloop
 endfacet
 facet normal -3.313544e-16 -7.174459e-01  6.966142e-01
   outer loop
     vertex -7.300000e+01  1.500000e+00 -1.279102e+02
     vertex -2.300000e+01  1.500000e+00 -1.279102e+02
     vertex -2.300000e+01  4.812111e+01 -7.989488e+01
   endloop
 endfacet
 facet normal  4.396483e-16  1.000000e+00 -1.106733e-15
   outer loop
     vertex -7.300000e+01  1.500000e+00 -1.279102e+02
     vertex -7.300000e+01  1.500000e+00 -5.387745e+01
     vertex -2.300000e+01  1.500000e+00 -5.387745e+01
   endloop
 endfacet
 facet normal  4.618528e-16  1.000000e+00 -1.121730e-15
   outer loop
     vertex -7.300000e+01  1.500000e+00 -1.279102e+02
     vertex -2.300000e+01  1.500000e+00 -5.387745e+01
     vertex -2.300000e+01  1.500000e+00 -1.279102e+02
   endloop
 endfacet
 facet normal -5.027583e-16 -9.043144e-01 -4.268670e-01
   outer loop
     vertex -7.300000e+01  7.447095e+01 -1.300000e+02
     vertex -2.300000e+01  5.130475e+01 -8.092259e+01
     vertex -7.300000e+01  5.130475e+01 -8.092259e+01
   endloop
 endfacet
 facet normal -2.570216e-16 -9.043144e-01 -4.268670e-01
   outer loop
     vertex -7.300000e+01  7.447095e+01 -1.300000e+02
     vertex -2.300000e+01  7.447095e+01 -1.300000e+02
     vertex -2.300000e+01  5.130475e+01 -8.092259e+01
   endloop
 endfacet
 facet normal  1.140652e-31  4.013311e-16  1.000000e+00
   outer loop
     vertex -7.300000e+01  3.652338e+00 -1.300000e+02
     vertex -2.300000e+01  7.447095e+01 -1.300000e+02
     vertex -7.300000e+01  7.447095e+01 -1.300000e+02
   endloop
 endfacet
 facet normal  1.746623e-31  4.013311e-16  1.000000e+00
   outer loop
     vertex -7.300000e+01  3.652338e+00 -1.300000e+02
     vertex -2.300000e+01  3.652338e+00 -1.300000e+02
     vertex -2.300000e+01  7.447095e+01 -1.300000e+02
   endloop
 endfacet
 facet normal  2.659118e-16  7.174459e-01 -6.966142e-01
   outer loop
     vertex -2.300000e+01  5.130475e+01 -8.092259e+01
     vertex -2.300000e+01  3.652338e+00 -1.300000e+02
     vertex -7.300000e+01  3.652338e+00 -1.300000e+02
   endloop
 endfacet
 facet normal  4.078208e-16  7.174459e-01 -6.966142e-01
   outer loop
     vertex -7.300000e+01  5.130475e+01 -8.092259e+01
     vertex -2.300000e+01  5.130475e+01 -8.092259e+01
     vertex -7.300000e+01  3.652338e+00 -1.300000e+02
   endloop
 endfacet
 facet normal -2.513791e-16 -9.043144e-01 -4.268670e-01
   outer loop
     vertex -7.300000e+01  4.958306e+01 -7.727520e+01
     vertex -2.300000e+01  2.641685e+01 -2.819779e+01
     vertex -7.300000e+01  2.641685e+01 -2.819779e+01
   endloop
 endfacet
 facet normal -5.140432e-16 -9.043144e-01 -4.268670e-01
   outer loop
     vertex -7.300000e+01  4.958306e+01 -7.727520e+01
     vertex -2.300000e+01  4.958306e+01 -7.727520e+01
     vertex -2.300000e+01  2.641685e+01 -2.819779e+01
   endloop
 endfacet
 facet normal  2.593673e-16  4.873139e-01  8.732269e-01
   outer loop
     vertex -7.300000e+01  3.652338e+00 -5.164306e+01
     vertex -2.300000e+01  4.958306e+01 -7.727520e+01
     vertex -7.300000e+01  4.958306e+01 -7.727520e+01
   endloop
 endfacet
 facet normal  8.798962e-17  4.873139e-01  8.732269e-01
   outer loop
     vertex -7.300000e+01  3.652338e+00 -5.164306e+01
     vertex -2.300000e+01  3.652338e+00 -5.164306e+01
     vertex -2.300000e+01  4.958306e+01 -7.727520e+01
   endloop
 endfacet
 facet normal  4.112326e-16  7.174459e-01 -6.966142e-01
   outer loop
     vertex -7.300000e+01  3.652338e+00 -5.164306e+01
     vertex -2.300000e+01  2.641685e+01 -2.819779e+01
     vertex -2.300000e+01  3.652338e+00 -5.164306e+01
   endloop
 endfacet
 facet normal  3.553630e-16  7.174459e-01 -6.966142e-01
   outer loop
     vertex -7.300000e+01  2.641685e+01 -2.819779e+01
     vertex -2.300000e+01  2.641685e+01 -2.819779e+01
     vertex -7.300000e+01  3.652338e+00 -5.164306e+01
   endloop
 endfacet
 facet normal  7.105427e-17 -7.543237e-16 -1.000000e+00
   outer loop
     vertex -7.300000e+01  1.500000e+00 -2.530000e+01
     vertex -2.300000e+01  2.504900e+01 -2.530000e+01
     vertex -2.300000e+01  1.500000e+00 -2.530000e+01
   endloop
 endfacet
 facet normal  7.105427e-17 -7.543237e-16 -1.000000e+00
   outer loop
     vertex -7.300000e+01  2.504900e+01 -2.530000e+01
     vertex -2.300000e+01  2.504900e+01 -2.530000e+01
     vertex -7.300000e+01  1.500000e+00 -2.530000e+01
   endloop
 endfacet
 facet normal -3.363025e-16 -7.174459e-01  6.966142e-01
   outer loop
     vertex -7.300000e+01  1.500000e+00 -4.955321e+01
     vertex -2.300000e+01  2.504900e+01 -2.530000e+01
     vertex -7.300000e+01  2.504900e+01 -2.530000e+01
   endloop
 endfacet
 facet normal -4.303492e-16 -7.174459e-01  6.966142e-01
   outer loop
     vertex -7.300000e+01  1.500000e+00 -4.955321e+01
     vertex -2.300000e+01  1.500000e+00 -4.955321e+01
     vertex -2.300000e+01  2.504900e+01 -2.530000e+01
   endloop
 endfacet
 facet normal  4.396483e-16  1.000000e+00 -1.071166e-15
   outer loop
     vertex -7.300000e+01  1.500000e+00 -4.955321e+01
     vertex -7.300000e+01  1.500000e+00 -2.530000e+01
     vertex -2.300000e+01  1.500000e+00 -2.530000e+01
   endloop
 endfacet
 facet normal  4.618528e-16  1.000000e+00 -1.116942e-15
   outer loop
     vertex -7.300000e+01  1.500000e+00 -4.955321e+01
     vertex -2.300000e+01  1.500000e+00 -2.530000e+01
     vertex -2.300000e+01  1.500000e+00 -4.955321e+01
   endloop
 endfacet
endsolid
